<svg id="Layer_1" data-name="Layer 1" xmlns="http://www.w3.org/2000/svg" viewBox="0 0 107.795 183.956">
  <defs>
    <style>
      .cls-1 {
        fill: #728440;
      }

      .cls-2 {
        fill: #a5ae53;
      }
    </style>
  </defs>
  <title>0bff8962-8cf6-439a-9da0-07ad7e01853b</title>
  <polygon class="cls-1" points="28.539 0 0 97.108 28.539 127.702 75.705 168.592 93.857 110.278 107.795 68.751 28.539 0"/>
  <path class="cls-2" d="M107.795,68.751L39.449,9.612l8.142,69.146L22.983,19.091,0,97.108l81.014,86.849ZM48.7,43.157L73.04,59.339,89.664,75.926,69.322,62.444Zm6.58,25.669L79.553,84.963,96.13,101.5,75.845,88.059Zm-33.4,7.482L31.5,56.329,25.075,78.368l-8.54,16.349ZM26.4,91.87L36.023,71.89,29.595,93.929l-8.54,16.349ZM50.247,90.1l15.505,35.367,6.637,30.308L59.4,126.266Z"/>
</svg>
