<svg id="Layer_1" data-name="Layer 1" xmlns="http://www.w3.org/2000/svg" viewBox="0 0 58.358 52.376">
  <defs>
    <style>
      .cls-1 {
        fill: #f2edeb;
      }

      .cls-2 {
        fill: #deb600;
      }

      .cls-3 {
        fill: #c88436;
      }
    </style>
  </defs>
  <title>e53260c3-989b-44bb-804d-8678ab0462c3</title>
  <g>
    <path class="cls-1" d="M24.874,36.929a7.194,7.194,0,0,0,3.77-2.421C30.092,32.65,31.5,28.956,30.7,26.6c-1.8-5.336-7.628-.016-11.108,4.057a10.482,10.482,0,0,0-1.218-4.488c-1.143-2.214-3.738-6.9-6.821-5.938-2.994.934-3.775,4.58-3.358,7.28a8.445,8.445,0,0,0,1.44,3.73,14.571,14.571,0,0,0-2.066.07C5.428,31.544,1.166,31.818.2,34.3c-0.908,2.351,1.384,4.677,3.359,5.463a12.149,12.149,0,0,0,6.627.206A12.489,12.489,0,0,0,7.9,43.549c-0.876,2.182-1.24,6.9,1.061,8.468S15.287,49.6,16.5,47.953a9.234,9.234,0,0,0,1.7-6,13.842,13.842,0,0,0,6.315,5.771,8.268,8.268,0,0,0,.742.4c1.137,0.534,2.087.225,3.29,0.257a1.014,1.014,0,0,0,.909-0.523,2.607,2.607,0,0,0,1.057-1.138C32.207,43.365,28.735,39.2,24.874,36.929Z"/>
    <path class="cls-2" d="M23.752,37.184A6.1,6.1,0,0,0,26,35.6a1.106,1.106,0,0,0-.483-1.828c-0.4-.1-0.9-0.316-1.365-0.441a0.945,0.945,0,0,0,.181-0.126,1.1,1.1,0,0,0-1.064-1.828A9.05,9.05,0,0,0,19.112,33.2c0.006-.754-0.006-1.508-0.041-2.269a1.107,1.107,0,0,0-1.867-.773,7.3,7.3,0,0,0-.643.8c-0.8-1.339-1.915-2.321-3.521-1.047-1.52,1.205-1.175,2.54-.293,3.777L12.2,33.511a1.1,1.1,0,0,0-1.384,1.055,4.531,4.531,0,0,0,.169,1.074c-1.725.632-3.583,2-1.988,3.812A3.4,3.4,0,0,0,11.5,40.49a6.333,6.333,0,0,0-.965.687,1.1,1.1,0,0,0,0,1.547,4.668,4.668,0,0,0,2.845,1.34c0.046,0.161.086,0.318,0.151,0.489a1.119,1.119,0,0,0,1.607.654,5.612,5.612,0,0,0,3.38-3.962c0.786,1.849,1.939,3.731,3.922,3.156a2.172,2.172,0,0,0,1.48-2.8c1.254-.127,2.5-0.5,2.238-2.073C25.993,38.518,24.958,37.765,23.752,37.184Z"/>
    <path class="cls-3" d="M18.173,36.041a1.109,1.109,0,0,0-1.547,0l-0.122.122a1.094,1.094,0,0,0,1.547,1.547l0.122-.121A1.111,1.111,0,0,0,18.173,36.041Z"/>
  </g>
  <g>
    <path class="cls-1" d="M50.645,21.326a9.118,9.118,0,0,0,4.779-3.069c1.835-2.354,3.617-7.038,2.611-10.021-2.28-6.763-9.669-.02-14.08,5.143A13.286,13.286,0,0,0,42.411,7.69C40.962,4.884,37.674-1.056,33.765.163c-3.8,1.183-4.785,5.8-4.256,9.227a10.7,10.7,0,0,0,1.826,4.729,18.47,18.47,0,0,0-2.619.089C26,14.5,20.593,14.848,19.375,18c-1.151,2.98,1.755,5.928,4.258,6.925,2.6,1.034,5.537.777,8.4,0.261a15.831,15.831,0,0,0-2.9,4.533c-1.11,2.765-1.572,8.743,1.345,10.733s8.012-3.066,9.557-5.151a11.705,11.705,0,0,0,2.16-7.608A17.545,17.545,0,0,0,50.2,35.008a10.481,10.481,0,0,0,.941.51c1.442,0.677,2.646.285,4.17,0.326a1.286,1.286,0,0,0,1.152-.663,3.3,3.3,0,0,0,1.339-1.442C59.94,29.485,55.539,24.2,50.645,21.326Z"/>
    <path class="cls-2" d="M49.222,21.65a7.737,7.737,0,0,0,2.846-2.007,1.4,1.4,0,0,0-.612-2.317c-0.512-.132-1.139-0.4-1.73-0.559a1.2,1.2,0,0,0,.229-0.16c1.09-1.028-.08-2.536-1.349-2.317a11.472,11.472,0,0,0-5.265,2.31c0.008-.955-0.008-1.911-0.052-2.876a1.4,1.4,0,0,0-2.367-.98,9.25,9.25,0,0,0-.815,1.016c-1.016-1.7-2.427-2.942-4.463-1.327-1.926,1.528-1.489,3.22-.372,4.788l-0.694-.227a1.4,1.4,0,0,0-1.755,1.337,5.743,5.743,0,0,0,.214,1.362c-2.187.8-4.542,2.53-2.52,4.831a4.3,4.3,0,0,0,3.176,1.316,8.028,8.028,0,0,0-1.224.871,1.4,1.4,0,0,0,0,1.961,5.917,5.917,0,0,0,3.606,1.7c0.058,0.2.109,0.4,0.192,0.62a1.419,1.419,0,0,0,2.037.829c2.806-1.207,3.533-2.9,4.284-5.022,1,2.344,2.458,4.729,4.972,4a2.753,2.753,0,0,0,1.876-3.555c1.589-.16,3.166-0.628,2.837-2.628C52.063,23.341,50.751,22.386,49.222,21.65Z"/>
    <path class="cls-3" d="M42.15,20.2a1.405,1.405,0,0,0-1.961,0l-0.154.154A1.386,1.386,0,0,0,42,22.316l0.154-.154A1.409,1.409,0,0,0,42.15,20.2Z"/>
  </g>
</svg>
